<svg width="177" height="31" viewBox="0 0 177 31" fill="none" xmlns="http://www.w3.org/2000/svg">
<path d="M7.01172 13.5938L4.16016 30H0.625L4.29688 8.86719H7.63672L7.01172 13.5938ZM5.37109 18.6328L3.92578 18.5938C4.10807 17.3307 4.4401 16.0938 4.92188 14.8828C5.41667 13.6589 6.0612 12.5586 6.85547 11.582C7.66276 10.6055 8.61979 9.83724 9.72656 9.27734C10.8464 8.70443 12.1224 8.4375 13.5547 8.47656C14.6875 8.5026 15.6315 8.72396 16.3867 9.14062C17.1549 9.54427 17.7539 10.0977 18.1836 10.8008C18.6133 11.5039 18.8997 12.3177 19.043 13.2422C19.1862 14.1536 19.1992 15.1237 19.082 16.1523L16.7773 30H13.2227L15.5664 16.0938C15.6576 15.2474 15.625 14.4857 15.4688 13.8086C15.3255 13.1185 15 12.5716 14.4922 12.168C13.9974 11.7513 13.2812 11.5299 12.3438 11.5039C11.3542 11.4779 10.4622 11.6667 9.66797 12.0703C8.8737 12.474 8.17708 13.0273 7.57812 13.7305C6.99219 14.4206 6.51042 15.1953 6.13281 16.0547C5.76823 16.901 5.51432 17.7604 5.37109 18.6328ZM22.9883 19.7852L23.0469 19.3359C23.2031 17.9167 23.5547 16.5495 24.1016 15.2344C24.6615 13.9193 25.3971 12.7474 26.3086 11.7188C27.2201 10.6901 28.3008 9.88281 29.5508 9.29688C30.8008 8.71094 32.194 8.4375 33.7305 8.47656C35.2148 8.5026 36.4844 8.82161 37.5391 9.43359C38.6068 10.0456 39.4661 10.8594 40.1172 11.875C40.7812 12.8776 41.2435 14.0104 41.5039 15.2734C41.7643 16.5365 41.8294 17.8385 41.6992 19.1797L41.6602 19.6289C41.4909 21.0482 41.1263 22.4089 40.5664 23.7109C40.0065 25.013 39.2643 26.1719 38.3398 27.1875C37.4284 28.2031 36.3477 29.0039 35.0977 29.5898C33.8477 30.1628 32.4609 30.4297 30.9375 30.3906C29.4661 30.3646 28.1966 30.0521 27.1289 29.4531C26.0742 28.8411 25.2214 28.0339 24.5703 27.0312C23.9193 26.0286 23.4635 24.9023 23.2031 23.6523C22.9427 22.4023 22.8711 21.1133 22.9883 19.7852ZM26.5625 19.3359L26.5234 19.8047C26.4323 20.625 26.4258 21.4779 26.5039 22.3633C26.5951 23.2487 26.8034 24.069 27.1289 24.8242C27.4674 25.5794 27.9557 26.1979 28.5938 26.6797C29.2318 27.1615 30.0586 27.4154 31.0742 27.4414C32.1549 27.4674 33.1055 27.2591 33.9258 26.8164C34.7461 26.3607 35.4427 25.7487 36.0156 24.9805C36.6016 24.2122 37.0638 23.3594 37.4023 22.4219C37.7539 21.4844 37.9883 20.5534 38.1055 19.6289L38.1445 19.1797C38.2357 18.3594 38.2357 17.5065 38.1445 16.6211C38.0664 15.7227 37.8581 14.8893 37.5195 14.1211C37.194 13.3398 36.7122 12.7083 36.0742 12.2266C35.4362 11.7318 34.6094 11.4714 33.5938 11.4453C32.513 11.4062 31.556 11.6211 30.7227 12.0898C29.9023 12.5456 29.2057 13.1641 28.6328 13.9453C28.0599 14.7266 27.5977 15.5924 27.2461 16.543C26.9076 17.4805 26.6797 18.4115 26.5625 19.3359ZM49.4141 0H52.9688L48.4375 26.1133L47.4609 30H44.1992L49.4141 0ZM63.4375 19.1406L63.3984 19.5508C63.2292 20.8398 62.9167 22.1289 62.4609 23.418C62.0182 24.707 61.4062 25.8854 60.625 26.9531C59.8568 28.0208 58.9128 28.8737 57.793 29.5117C56.6862 30.1497 55.3841 30.4492 53.8867 30.4102C52.5326 30.3841 51.3932 30.0716 50.4688 29.4727C49.5443 28.8737 48.8151 28.0924 48.2812 27.1289C47.7474 26.1523 47.3828 25.0781 47.1875 23.9062C46.9922 22.7214 46.9336 21.5365 47.0117 20.3516L47.2266 18.5547C47.4479 17.2917 47.8125 16.0547 48.3203 14.8438C48.8281 13.6328 49.4857 12.5391 50.293 11.5625C51.1003 10.5859 52.0573 9.81771 53.1641 9.25781C54.2708 8.6849 55.5404 8.41797 56.9727 8.45703C58.418 8.49609 59.5898 8.84766 60.4883 9.51172C61.3997 10.1758 62.0898 11.0352 62.5586 12.0898C63.0273 13.1315 63.3203 14.2708 63.4375 15.5078C63.5677 16.7448 63.5677 17.9557 63.4375 19.1406ZM59.8438 19.5312L59.9023 19.1016C59.9935 18.3203 60.026 17.4935 60 16.6211C59.974 15.7487 59.8307 14.9284 59.5703 14.1602C59.3229 13.3919 58.9062 12.7669 58.3203 12.2852C57.7474 11.7904 56.9466 11.5299 55.918 11.5039C55.0977 11.4779 54.3229 11.6146 53.5938 11.9141C52.8776 12.2005 52.2266 12.6107 51.6406 13.1445C51.0547 13.6654 50.5534 14.2708 50.1367 14.9609C49.7331 15.638 49.4271 16.3542 49.2188 17.1094L48.457 21.8555C48.431 22.793 48.6133 23.6784 49.0039 24.5117C49.3945 25.332 49.9479 26.0026 50.6641 26.5234C51.3932 27.0312 52.2396 27.3047 53.2031 27.3438C54.2839 27.3828 55.2148 27.1745 55.9961 26.7188C56.7773 26.25 57.4284 25.6315 57.9492 24.8633C58.4831 24.082 58.8997 23.2227 59.1992 22.2852C59.5117 21.3477 59.7266 20.4297 59.8438 19.5312ZM74.9609 30.3906C73.5156 30.3646 72.2591 30.0781 71.1914 29.5312C70.1367 28.9714 69.2708 28.2227 68.5938 27.2852C67.9297 26.3346 67.4544 25.2539 67.168 24.043C66.8815 22.832 66.7969 21.5625 66.9141 20.2344L66.9922 19.3945C67.1224 18.0404 67.4544 16.7122 67.9883 15.4102C68.5221 14.0951 69.2318 12.9102 70.1172 11.8555C71.0156 10.8008 72.0703 9.96745 73.2812 9.35547C74.5052 8.73047 75.8594 8.4375 77.3438 8.47656C78.8151 8.5026 80.0391 8.8151 81.0156 9.41406C81.9922 10.013 82.7539 10.8073 83.3008 11.7969C83.8607 12.7734 84.2253 13.8737 84.3945 15.0977C84.5638 16.3086 84.5768 17.5521 84.4336 18.8281L84.2188 20.4492H68.8867L69.3555 17.5L81.0547 17.5195L81.1133 17.207C81.2435 16.2695 81.1914 15.3646 80.957 14.4922C80.7227 13.6198 80.293 12.9036 79.668 12.3438C79.056 11.7708 78.2292 11.4714 77.1875 11.4453C76.1068 11.4062 75.1693 11.6276 74.375 12.1094C73.5807 12.5781 72.9167 13.2161 72.3828 14.0234C71.849 14.8177 71.4258 15.6901 71.1133 16.6406C70.8138 17.5781 70.6055 18.4961 70.4883 19.3945L70.4102 20.2148C70.332 21.0482 70.3581 21.888 70.4883 22.7344C70.6185 23.5807 70.8659 24.3555 71.2305 25.0586C71.6081 25.7487 72.1289 26.3151 72.793 26.7578C73.457 27.1875 74.2773 27.4154 75.2539 27.4414C76.4388 27.4674 77.5 27.2135 78.4375 26.6797C79.388 26.1328 80.2539 25.4427 81.0352 24.6094L83.0469 26.3281C82.4349 27.2266 81.7057 27.9818 80.8594 28.5938C80.013 29.2057 79.0885 29.6615 78.0859 29.9609C77.0833 30.2604 76.0417 30.4036 74.9609 30.3906ZM99.5312 17.1484H92.2852L92.2461 13.5742H98.5742C99.6419 13.5742 100.547 13.418 101.289 13.1055C102.044 12.7799 102.617 12.3177 103.008 11.7188C103.398 11.1068 103.594 10.3711 103.594 9.51172C103.594 8.5612 103.411 7.78646 103.047 7.1875C102.682 6.58854 102.122 6.15234 101.367 5.87891C100.625 5.60547 99.6745 5.46875 98.5156 5.46875H93.7695V30H88.8672V1.5625H98.5156C100.078 1.5625 101.471 1.71224 102.695 2.01172C103.932 2.3112 104.98 2.77995 105.84 3.41797C106.712 4.04297 107.37 4.83724 107.812 5.80078C108.268 6.76432 108.496 7.91016 108.496 9.23828C108.496 10.4102 108.216 11.4844 107.656 12.4609C107.096 13.4245 106.27 14.2122 105.176 14.8242C104.082 15.4362 102.721 15.8008 101.094 15.918L99.5312 17.1484ZM99.3164 30H90.7422L92.9492 26.1133H99.3164C100.423 26.1133 101.348 25.931 102.09 25.5664C102.832 25.1888 103.385 24.6745 103.75 24.0234C104.128 23.3594 104.316 22.5846 104.316 21.6992C104.316 20.7747 104.154 19.974 103.828 19.2969C103.503 18.6068 102.988 18.0794 102.285 17.7148C101.582 17.3372 100.664 17.1484 99.5312 17.1484H94.0234L94.0625 13.5742H101.23L102.344 14.9219C103.906 14.974 105.189 15.319 106.191 15.957C107.207 16.5951 107.962 17.4219 108.457 18.4375C108.952 19.4531 109.199 20.5469 109.199 21.7188C109.199 23.5286 108.802 25.0456 108.008 26.2695C107.227 27.4935 106.1 28.4245 104.629 29.0625C103.158 29.6875 101.387 30 99.3164 30ZM125.586 25.7617V15.6836C125.586 14.9284 125.449 14.2773 125.176 13.7305C124.902 13.1836 124.486 12.7604 123.926 12.4609C123.379 12.1615 122.689 12.0117 121.855 12.0117C121.087 12.0117 120.423 12.1419 119.863 12.4023C119.303 12.6628 118.867 13.0143 118.555 13.457C118.242 13.8997 118.086 14.401 118.086 14.9609H113.398C113.398 14.1276 113.6 13.3203 114.004 12.5391C114.408 11.7578 114.993 11.0612 115.762 10.4492C116.53 9.83724 117.448 9.35547 118.516 9.00391C119.583 8.65234 120.781 8.47656 122.109 8.47656C123.698 8.47656 125.104 8.74349 126.328 9.27734C127.565 9.8112 128.535 10.6185 129.238 11.6992C129.954 12.7669 130.312 14.1081 130.312 15.7227V25.1172C130.312 26.0807 130.378 26.9466 130.508 27.7148C130.651 28.4701 130.853 29.1276 131.113 29.6875V30H126.289C126.068 29.4922 125.892 28.8477 125.762 28.0664C125.645 27.2721 125.586 26.5039 125.586 25.7617ZM126.27 17.1484L126.309 20.0586H122.93C122.057 20.0586 121.289 20.1432 120.625 20.3125C119.961 20.4688 119.408 20.7031 118.965 21.0156C118.522 21.3281 118.19 21.7057 117.969 22.1484C117.747 22.5911 117.637 23.0924 117.637 23.6523C117.637 24.2122 117.767 24.7266 118.027 25.1953C118.288 25.651 118.665 26.0091 119.16 26.2695C119.668 26.5299 120.28 26.6602 120.996 26.6602C121.96 26.6602 122.799 26.4648 123.516 26.0742C124.245 25.6706 124.818 25.1823 125.234 24.6094C125.651 24.0234 125.872 23.4701 125.898 22.9492L127.422 25.0391C127.266 25.5729 126.999 26.1458 126.621 26.7578C126.243 27.3698 125.749 27.9557 125.137 28.5156C124.538 29.0625 123.815 29.5117 122.969 29.8633C122.135 30.2148 121.172 30.3906 120.078 30.3906C118.698 30.3906 117.467 30.1172 116.387 29.5703C115.306 29.0104 114.46 28.2617 113.848 27.3242C113.236 26.3737 112.93 25.2995 112.93 24.1016C112.93 22.9818 113.138 21.9922 113.555 21.1328C113.984 20.2604 114.609 19.5312 115.43 18.9453C116.263 18.3594 117.279 17.9167 118.477 17.6172C119.674 17.3047 121.042 17.1484 122.578 17.1484H126.27ZM139.902 13.3789V30H135.195V8.86719H139.629L139.902 13.3789ZM139.062 18.6523L137.539 18.6328C137.552 17.1354 137.76 15.7617 138.164 14.5117C138.581 13.2617 139.154 12.1875 139.883 11.2891C140.625 10.3906 141.51 9.70052 142.539 9.21875C143.568 8.72396 144.714 8.47656 145.977 8.47656C146.992 8.47656 147.91 8.61979 148.73 8.90625C149.564 9.17969 150.273 9.62891 150.859 10.2539C151.458 10.8789 151.914 11.6927 152.227 12.6953C152.539 13.6849 152.695 14.9023 152.695 16.3477V30H147.969V16.3281C147.969 15.3125 147.819 14.5117 147.52 13.9258C147.233 13.3268 146.81 12.9036 146.25 12.6562C145.703 12.3958 145.02 12.2656 144.199 12.2656C143.392 12.2656 142.669 12.4349 142.031 12.7734C141.393 13.112 140.853 13.5742 140.41 14.1602C139.98 14.7461 139.648 15.4232 139.414 16.1914C139.18 16.9596 139.062 17.7799 139.062 18.6523ZM162.246 0V30H157.52V0H162.246ZM175.371 8.86719L166.172 19.0625L161.133 24.2188L159.902 20.2344L163.711 15.5273L169.688 8.86719H175.371ZM170.703 30L163.848 20.0781L166.816 16.7773L176.152 30H170.703Z" fill="#2B3A55"/>
</svg>
